<?xml version="1.0" encoding="UTF-8"?> <svg xmlns="http://www.w3.org/2000/svg" xmlns:xlink="http://www.w3.org/1999/xlink" version="1.1" id="Layer_1" x="0px" y="0px" viewBox="0 0 567.9 233.1" style="enable-background:new 0 0 567.9 233.1;" xml:space="preserve"> <style type="text/css"> .st0{fill:#FFFFFF;} .st1{fill:#D8222E;} </style> <polygon class="st0" points="436,92.8 431.6,102.8 422.2,124 419,131.3 413.9,142.9 404.3,142.9 426.8,92.8 "></polygon> <path class="st0" d="M285.3,49.6c1.9-2.9,2.8-6.3,2.7-9.7c0.1-3.3-0.8-6.6-2.6-9.5c-1.8-2.7-4.4-4.9-7.4-6.2 c-3.6-1.5-7.5-2.2-11.3-2.1h-20.6v50h9.3V57.6h11.3c0.9,0,1.5,0,2-0.1l10.2,14.6h10l-11.5-16.4C280.6,54.6,283.3,52.4,285.3,49.6z M275.5,47.3c-2.1,1.8-5.1,2.6-9.2,2.6h-10.9V30h10.9c4,0,7.1,0.9,9.2,2.6c2.2,1.8,3.3,4.5,3.2,7.3 C278.8,42.8,277.6,45.5,275.5,47.3L275.5,47.3z"></path> <path class="st0" d="M285.3,191c1.9-2.9,2.9-6.3,2.8-9.7c0.3-6.8-3.7-13.1-10-15.7c-3.6-1.5-7.5-2.2-11.3-2.1h-20.6v50h9.3V199h11.3 c0.9,0,1.5,0,2-0.1l10.2,14.6h10l-11.5-16.4C280.6,196,283.3,193.8,285.3,191z M275.5,188.7c-2.1,1.8-5.1,2.6-9.2,2.6h-10.9v-20 h10.9c4,0,7.1,0.9,9.2,2.6c4.1,3.9,4.2,10.3,0.4,14.4C275.8,188.4,275.6,188.5,275.5,188.7L275.5,188.7z"></path> <path class="st0" d="M327.1,72.9c6.9,0,12.3-1.9,16.1-5.8c3.8-3.9,5.8-9.5,5.8-16.7V22.1h-9.1V50c0,9.8-4.2,14.7-12.7,14.7 s-12.7-4.9-12.7-14.7V22.1h-9.3v28.2c0,7.2,1.9,12.8,5.8,16.7C314.8,70.9,320.1,72.9,327.1,72.9z"></path> <path class="st0" d="M408.5,68.6c3.3-2.2,5.2-6,5-10c0.1-2.8-0.8-5.6-2.4-7.9c-1.7-2.2-4-3.7-6.6-4.5c1.9-1,3.6-2.5,4.7-4.4 c1.2-2,1.8-4.3,1.7-6.6c0.1-3.8-1.7-7.4-4.8-9.5c-3.2-2.3-7.8-3.5-13.6-3.5h-23.4v50H394C400.4,72.2,405.2,71,408.5,68.6z M391.5,29.4c2.6-0.1,5.2,0.5,7.5,1.8c1.7,1.1,2.7,3.1,2.6,5.2c0.1,2.1-0.9,4-2.6,5.1c-1.8,1.2-4.3,1.8-7.5,1.8h-13.1V29.4 L391.5,29.4z M378.4,64.9V50.4h15c7.2,0,10.8,2.4,10.8,7.2c0,4.8-3.6,7.2-10.8,7.2H378.4z"></path> <polygon class="st0" points="442.9,40 432.1,22.1 422.2,22.1 437.9,48.1 "></polygon> <polygon class="st0" points="441.9,72.2 451.2,72.2 451.2,54.5 466.4,29.4 470.8,22.1 461.6,22.1 446.8,46.5 441.9,54.7 "></polygon> <polygon class="st0" points="283.7,135.1 255.4,135.1 255.4,121.3 279.6,121.3 279.6,113.6 255.4,113.6 255.4,100.6 282.7,100.6 282.7,92.8 246.1,92.8 246.1,142.9 283.7,142.9 "></polygon> <path class="st0" d="M325,134.1c-1.8,1.2-4.6,1.8-8.3,1.8c-3.1,0-6.1-0.5-9-1.5c-2.7-0.9-5.3-2.3-7.5-4l-3.1,7.3 c2.5,2,5.4,3.5,8.5,4.4c3.6,1.1,7.4,1.7,11.2,1.6c3.8,0.1,7.6-0.6,11.1-2c2.7-1.1,5.1-2.9,6.8-5.4c1.5-2.2,2.3-4.8,2.3-7.5 c0.1-2.8-0.8-5.6-2.5-7.7c-1.7-1.9-3.8-3.3-6.1-4.3c-3-1.1-6-2-9.2-2.7c-2.7-0.7-4.9-1.3-6.4-1.8c-1.4-0.4-2.8-1.2-3.9-2.1 c-1-0.9-1.6-2.2-1.5-3.5c0-2,1-3.9,2.7-4.9c1.8-1.2,4.5-1.9,8.2-1.9c2.3,0,4.7,0.4,6.9,1c2.4,0.7,4.7,1.7,6.9,2.9l2.9-7.2 c-2.3-1.5-4.9-2.6-7.6-3.3c-2.9-0.8-6-1.1-9-1.1c-3.8-0.1-7.6,0.6-11.1,2c-2.7,1.1-5.1,3-6.8,5.4c-1.5,2.2-2.3,4.9-2.3,7.5 c-0.2,2.8,0.8,5.6,2.5,7.8c1.6,1.9,3.7,3.4,6.1,4.3c3,1.1,6.1,2,9.3,2.7c2.7,0.7,4.9,1.3,6.4,1.8c1.4,0.4,2.8,1.2,3.9,2.2 c1,0.9,1.6,2.2,1.5,3.5C327.8,131.3,326.7,133.1,325,134.1z"></path> <path class="st0" d="M387.7,141.4c3.3-1.4,6.3-3.5,8.6-6.2l-6-5.7c-3.4,3.8-8.2,6-13.3,5.9c-3.2,0.1-6.4-0.7-9.2-2.3 c-2.7-1.4-4.9-3.6-6.4-6.3c-3-5.7-3-12.5,0-18.2c1.5-2.6,3.7-4.8,6.4-6.3c2.8-1.5,6-2.3,9.2-2.3c5.1-0.1,10,2.1,13.4,5.9l6-5.7 c-2.3-2.7-5.3-4.8-8.6-6.2c-3.6-1.5-7.4-2.2-11.2-2.1c-4.8-0.1-9.5,1.1-13.7,3.3c-4,2.1-7.3,5.3-9.6,9.2c-4.6,8.2-4.6,18.2,0,26.5 c2.3,3.9,5.6,7.1,9.6,9.2c4.2,2.3,8.9,3.4,13.7,3.3C380.4,143.6,384.2,142.9,387.7,141.4z"></path> <path class="st0" d="M439.6,101l-4.5,10.1l5.6,12.9h-11.3l-3.2,7.3h17.5l5,11.6h9.7L439.6,101z"></path> <path class="st0" d="M511.4,101.1c-1.8-2.7-4.4-4.9-7.4-6.1c-3.6-1.5-7.4-2.2-11.3-2.1H472v50h9.3v-14.5h11.3 c3.9,0.1,7.8-0.6,11.4-2.1c3-1.3,5.6-3.4,7.4-6.2c1.8-2.8,2.7-6.1,2.6-9.5C514.1,107.3,513.2,104,511.4,101.1z M501.4,118 c-2.1,1.7-5.2,2.6-9.2,2.6h-10.9v-19.9h10.9c4,0,7.1,0.9,9.2,2.6c4.1,3.8,4.2,10.2,0.4,14.3C501.7,117.7,501.6,117.9,501.4,118z"></path> <polygon class="st0" points="539.7,135.1 539.7,121.3 563.8,121.3 563.8,113.6 539.7,113.6 539.7,100.6 566.9,100.6 566.9,92.8 530.4,92.8 530.4,142.9 567.9,142.9 567.9,135.1 "></polygon> <path class="st0" d="M342.7,166.1c-8.7-4.4-18.9-4.4-27.6,0c-4,2.1-7.3,5.3-9.6,9.2c-4.7,8.2-4.7,18.2,0,26.4 c2.3,3.9,5.6,7.1,9.6,9.2c8.7,4.4,18.9,4.4,27.6,0c4-2.1,7.3-5.3,9.7-9.2c4.7-8.2,4.7-18.3,0-26.4 C350.1,171.4,346.7,168.3,342.7,166.1z M344.2,197.6c-1.5,2.6-3.6,4.8-6.3,6.3c-5.6,3-12.4,3-18,0c-2.6-1.5-4.8-3.6-6.3-6.3 c-3.1-5.6-3.1-12.4,0-18.1c1.5-2.6,3.6-4.8,6.3-6.3c5.6-3,12.4-3,18,0c2.6,1.5,4.8,3.7,6.3,6.3C347.3,185.2,347.3,191.9,344.2,197.6 z"></path> <path class="st0" d="M410.1,166.1c-8.7-4.4-18.9-4.4-27.6,0c-4,2.1-7.3,5.3-9.7,9.2c-4.7,8.2-4.7,18.2,0,26.4 c2.3,3.9,5.7,7.1,9.7,9.2c8.7,4.4,18.9,4.4,27.6,0c4-2.1,7.3-5.3,9.7-9.2c4.7-8.2,4.7-18.3,0-26.4 C417.4,171.4,414.1,168.3,410.1,166.1z M411.6,197.6c-1.5,2.6-3.7,4.8-6.3,6.3c-5.6,3-12.4,3-18,0c-2.6-1.5-4.8-3.6-6.3-6.3 c-3-5.6-3-12.4,0-18.1c1.5-2.6,3.7-4.8,6.3-6.3c5.6-3,12.4-3,18,0c2.6,1.5,4.8,3.7,6.3,6.3C414.6,185.2,414.6,191.9,411.6,197.6z"></path> <path class="st0" d="M542.8,187.4c-3-1.1-6-2-9.2-2.7c-2.7-0.7-4.9-1.3-6.4-1.8c-1.4-0.5-2.7-1.2-3.9-2.1c-1-0.9-1.6-2.2-1.5-3.5 c0-2,1-3.9,2.7-4.9c1.8-1.2,4.5-1.9,8.2-1.9c2.3,0,4.7,0.4,6.9,1c2.4,0.7,4.7,1.7,6.9,2.9l2.9-7.2c-2.4-1.5-4.9-2.6-7.7-3.3 c-2.9-0.8-6-1.2-9-1.1c-3.8-0.1-7.6,0.6-11.1,2c-2.7,1.1-5.1,3-6.8,5.4c-1.5,2.2-2.3,4.9-2.3,7.5c-0.2,2.8,0.7,5.6,2.5,7.8 c1.6,1.9,3.7,3.4,6.1,4.3c3,1.1,6.1,2,9.3,2.7c2.7,0.7,4.9,1.3,6.4,1.8c1.4,0.4,2.8,1.2,3.9,2.2c1,0.9,1.6,2.2,1.5,3.5 c0,2-1,3.8-2.8,4.7c-1.8,1.2-4.6,1.8-8.3,1.8c-3.1,0-6.1-0.5-9-1.5c-2.7-0.9-5.3-2.3-7.5-4l-3.2,7.2c2.5,2,5.4,3.5,8.6,4.4 c3.6,1.1,7.4,1.7,11.2,1.6c3.8,0.1,7.6-0.6,11.2-2c2.7-1.1,5.1-3,6.8-5.4c1.5-2.2,2.3-4.8,2.3-7.5c0.1-2.8-0.8-5.6-2.5-7.7 C547.2,189.8,545.1,188.3,542.8,187.4z"></path> <polygon class="st0" points="467.6,196.1 449,163.6 449,163.5 440.3,163.5 440.3,163.5 440.3,163.5 440.3,163.6 440.3,213.6 449,213.6 449,178.9 465.5,207.8 469.7,207.8 486.2,178.8 494.9,163.5 486.2,163.5 "></polygon> <polygon class="st0" points="486.2,213.6 494.9,213.6 494.9,177.1 486.2,192.5 "></polygon> <path class="st1" d="M138.2,91.7l-31.3-18.1c-2.4-1.4-5.4-1.4-7.8,0L67.7,91.7c-2.4,1.4-3.9,4-3.9,6.8v36.2c0,2.8,1.5,5.4,3.9,6.8 l31.3,18.1c1.2,0.7,2.5,1,3.9,1l0,0c1.4,0,2.7-0.3,3.9-1l3-1.8v-9.3l-6.9,4l0,0l-31.1-18V98.6l31.1-18l31.1,18v35.9l-16,9.3v9.3 l20.2-11.7c2.4-1.4,3.9-4,3.9-6.8V98.4C142.1,95.7,140.6,93.1,138.2,91.7z"></path> <path class="st1" d="M32,92.8v9.3l39.8,23v-9.3L32,92.8z"></path> <path class="st1" d="M153.1,63.5L153.1,63.5l-39.8,23l8,4.6l39.8-23l0,0L153.1,63.5z"></path> <polygon class="st1" points="126,139.1 126,185.2 126,185.2 118,189.8 118,143.8 "></polygon> <path class="st1" d="M169.4,73.1l-0.3-0.2c-0.3-0.2-60.5-35-60.5-35c-3.5-2-7.8-2-11.3,0L37.7,72.4c-3.5,2-5.6,5.7-5.7,9.7v68.9 c0,4,2.1,7.7,5.6,9.7l26.1,15.1v-9.3l-22.1-12.8c-1-0.6-1.6-1.6-1.6-2.8V82.1c0-1.2,0.6-2.2,1.6-2.8l59.7-34.5c1-0.6,2.2-0.6,3.2,0 l59.7,34.5c1,0.6,1.6,1.6,1.6,2.8v34.1l8.1-4.7V82.1C173.9,78.6,172.2,75.3,169.4,73.1z M165.8,125.5v25.5c0,1.1-0.6,2.2-1.6,2.8 l-30.1,17.4v9.3l34.2-19.7c3.5-2,5.6-5.7,5.6-9.7v-30.2L165.8,125.5z M104.6,188.3c-1,0.6-2.2,0.6-3.2,0l-29.5-17v9.3l25.5,14.7 c1.7,1,3.7,1.5,5.6,1.5c2,0,3.9-0.5,5.6-1.5l1.3-0.8l16.1-9.3l0,0v-9.3l0,0L104.6,188.3z"></path> <path class="st1" d="M198.5,52.9L110.3,2c-4.6-2.6-10.2-2.6-14.7,0L55.2,25.3l8,4.7l36.4-21c2.1-1.2,4.6-1.2,6.7,0l88.2,51 c2.1,1.2,3.4,3.4,3.4,5.8v101.8c0,2.4-1.3,4.6-3.3,5.8l-88.2,50.9c-2.1,1.2-4.6,1.2-6.7,0l-88.2-50.9c-2.1-1.2-3.3-3.4-3.3-5.8V65.6 c0-2.4,1.3-4.6,3.3-5.8l35.7-20.6l8-4.6l-8-4.7L7.3,52.9C2.8,55.5,0,60.4,0,65.6v101.9c0,5.2,2.8,10.1,7.3,12.7l88.2,50.9 c4.6,2.6,10.2,2.6,14.7,0l88.2-50.9c4.5-2.6,7.3-7.5,7.4-12.7V65.6C205.9,60.4,203.1,55.5,198.5,52.9z"></path> <polygon class="st1" points="87.1,53.1 79.1,57.7 39,34.6 39,34.6 47.1,29.9 47.1,29.9 "></polygon> <polygon class="st1" points="205.9,102.3 205.9,111.6 165.9,134.6 165.9,125.5 "></polygon> <polygon class="st1" points="63.8,166.6 63.8,212.8 55.8,208.2 55.8,162 "></polygon> </svg> 