<svg width="19" height="19" viewBox="0 0 19 19" fill="none" xmlns="http://www.w3.org/2000/svg">
<g filter="url(#filter0_d_1161_16521)">
<circle cx="9.5" cy="8.5" r="7.5" fill="#CF953A"/>
<path d="M10.0625 4.75L9.98438 10.5H9.07813L9 4.75H10.0625ZM9.53125 12.8125C9.33854 12.8125 9.17318 12.7435 9.03516 12.6055C8.89714 12.4674 8.82813 12.3021 8.82813 12.1094C8.82813 11.9167 8.89714 11.7513 9.03516 11.6133C9.17318 11.4753 9.33854 11.4062 9.53125 11.4062C9.72396 11.4062 9.88932 11.4753 10.0273 11.6133C10.1654 11.7513 10.2344 11.9167 10.2344 12.1094C10.2344 12.237 10.2018 12.3542 10.1367 12.4609C10.0742 12.5677 9.98958 12.6536 9.88281 12.7187C9.77865 12.7813 9.66146 12.8125 9.53125 12.8125Z" fill="white"/>
</g>
<defs>
<filter id="filter0_d_1161_16521" x="0" y="0" width="19" height="19" filterUnits="userSpaceOnUse" color-interpolation-filters="sRGB">
<feFlood flood-opacity="0" result="BackgroundImageFix"/>
<feColorMatrix in="SourceAlpha" type="matrix" values="0 0 0 0 0 0 0 0 0 0 0 0 0 0 0 0 0 0 127 0" result="hardAlpha"/>
<feOffset dy="1"/>
<feGaussianBlur stdDeviation="1"/>
<feComposite in2="hardAlpha" operator="out"/>
<feColorMatrix type="matrix" values="0 0 0 0 0 0 0 0 0 0 0 0 0 0 0 0 0 0 0.25 0"/>
<feBlend mode="normal" in2="BackgroundImageFix" result="effect1_dropShadow_1161_16521"/>
<feBlend mode="normal" in="SourceGraphic" in2="effect1_dropShadow_1161_16521" result="shape"/>
</filter>
</defs>
</svg>
