<svg width="21" height="32" viewBox="0 0 21 32" fill="none" xmlns="http://www.w3.org/2000/svg">
<path d="M5.27454 5.98886L10.0656 0V26.351H8.62831C-0.474764 27.3092 0.00434566 25.8719 0.00434566 25.1532C0.00434566 24.5783 0.643158 23.636 0.962564 23.2368L5.27454 17.4875C1.20211 18.4457 1.44167 16.7688 1.44167 16.2897C1.44167 15.9064 2.08048 15.0121 2.39988 14.6128L6.47231 9.10307C5.75365 9.10307 4.31632 8.86352 4.31632 7.9053C4.31632 6.94708 4.95513 6.22842 5.27454 5.98886Z" fill="#1E1E1E"/>
<path d="M14.8568 5.98886L10.0657 0V26.351H11.503C20.6061 27.3092 20.127 25.8719 20.127 25.1532C20.127 24.5783 19.4881 23.636 19.1687 23.2368L14.8568 17.4875C18.9292 18.4457 18.6896 16.7688 18.6896 16.2897C18.6896 15.9064 18.0508 15.0121 17.7314 14.6128L13.659 9.10307C14.3777 9.10307 15.815 8.86352 15.815 7.9053C15.815 6.94708 15.1762 6.22842 14.8568 5.98886Z" fill="#1E1E1E"/>
<path d="M8.62827 30.4236V26.1116H11.5029V30.4236C11.5029 30.9027 11.2155 31.8609 10.0656 31.8609C8.91574 31.8609 8.62827 30.9027 8.62827 30.4236Z" fill="#1E1E1E"/>
</svg>
