<svg width="38" height="38" viewBox="0 0 38 38" fill="none" xmlns="http://www.w3.org/2000/svg">
<path d="M7.73798 30.2662L15.1874 30.2602L29.2155 16.2096C29.6934 16.6868 30.821 17.469 31.5081 16.7808C32.1952 16.0926 31.4111 14.9663 30.9332 14.4892L23.4778 7.04569C22.9999 6.56855 21.8723 5.78631 21.1852 6.4745C20.4981 7.16269 21.2822 8.28903 21.7601 8.76617L7.73201 22.8167L7.73798 30.2662Z" fill="#1E1E1E"/>
<path d="M6.88057 32.8453L5.16147 32.8467L5.16009 31.1276L7.73668 28.5469L9.45716 30.2646L6.88057 32.8453Z" fill="#1E1E1E"/>
<path d="M30.93 10.4779C30.701 10.7073 30.4525 10.5738 30.357 10.4784L27.3461 7.47236C27.1167 7.24333 27.2502 6.99491 27.3457 6.89933L29.0634 5.17885L28.2031 4.31999C27.9642 4.08141 27.658 3.43222 28.3451 2.74403C29.0322 2.05584 29.6819 2.36093 29.9209 2.59951L35.2257 7.89582C35.4647 8.2299 35.7996 9.04143 35.227 9.61492C34.6545 10.1884 33.8424 9.85479 33.5079 9.6163L32.6477 8.75744L30.93 10.4779Z" fill="#1E1E1E"/>
<path d="M27.0647 13.776L25.0575 11.772L23.626 13.2057L25.6333 15.2097C25.92 15.496 26.6366 15.9252 27.2092 15.3517C27.7818 14.7782 27.3514 14.0623 27.0647 13.776Z" fill="white"/>
<path d="M20.3345 17.6493L18.3273 15.6453L16.8959 17.079L18.9031 19.083C19.1899 19.3693 19.9065 19.7985 20.4791 19.225C21.0516 18.6515 20.6213 17.9356 20.3345 17.6493Z" fill="white"/>
<path d="M16.8991 21.0902L14.8918 19.0862L13.4604 20.5199L15.4676 22.5239C15.7544 22.8102 16.471 23.2394 17.0436 22.6659C17.6162 22.0924 17.1858 21.3765 16.8991 21.0902Z" fill="white"/>
<path d="M12.0313 24.8188C11.2297 25.6217 10.4558 25.2498 10.1691 24.9636C9.59561 24.391 10.1202 23.5788 10.4542 23.2442L23.4803 10.1973L25.0574 11.7718L12.0313 24.8188Z" fill="white"/>
</svg>
