<svg width="25" height="31" viewBox="0 0 25 31" fill="none" xmlns="http://www.w3.org/2000/svg">
<path d="M19.9028 16.7721C19.9028 7.46919 14.6848 1.71449 12.0758 0C5.8142 5.59071 4.2488 11.6287 4.2488 16.7721C4.2488 20.8869 6.93235 26.09 8.27412 28.1772H16.1011C19.3214 22.989 19.9773 18.4121 19.9028 16.7721Z" fill="#1E1E1E"/>
<path d="M16.9961 25.2704L21.6923 30.8611C22.5123 29.4448 24.1522 26.0754 24.1522 23.9286C24.1522 21.7817 21.0214 18.5615 19.456 17.2197L16.9961 25.2704Z" fill="#1E1E1E"/>
<path d="M7.15605 25.2701L2.45985 30.8608C1.63988 29.4445 -6.29425e-05 26.0752 -6.29425e-05 23.9283C-6.29425e-05 21.7815 3.13074 18.5613 4.69614 17.2195L7.15605 25.2701Z" fill="#1E1E1E"/>
<circle cx="12.0762" cy="9.39229" r="2.23629" fill="white"/>
</svg>
