<svg width="31" height="31" viewBox="0 0 31 31" fill="none" xmlns="http://www.w3.org/2000/svg">
<path d="M22.6042 4.73611C21.5708 1.11944 17.294 0.0717593 15.2847 0C12.4861 0 9.6875 0.861111 8.18056 4.73611C6.67361 8.61111 5.59722 9.6875 3.01389 11.625C0.947222 13.175 0.143519 16.5764 0 18.0833C3.44444 18.0833 4.52083 19.1597 4.95139 22.3889C5.38194 25.6181 7.75 25.4028 9.47222 26.4792C11.1944 27.5556 11.4097 31 15.7153 31C20.0208 31 20.4514 26.9097 21.9583 26.4792C23.4653 26.0486 24.9722 25.6181 25.6181 22.3889C26.1347 19.8056 29.4213 19.3032 31 19.375C31.0718 17.3657 30.6125 13.0458 28.2014 11.8403C25.1875 10.3333 23.8958 9.25694 22.6042 4.73611Z" fill="#1E1E1E"/>
<path d="M12.9168 8.39575C12.9168 7.36242 12.2709 6.45825 11.6251 6.45825C10.9793 6.45825 10.3334 7.10409 10.3334 8.39575C10.3334 9.68742 11.1945 10.118 11.6251 10.118C12.0556 10.118 12.9168 9.68742 12.9168 8.39575Z" fill="white"/>
<path d="M18.0834 8.39575C18.0834 7.36242 17.4375 6.45825 16.7917 6.45825C16.1459 6.45825 15.5 7.10409 15.5 8.39575C15.5 9.68742 16.3612 10.118 16.7917 10.118C17.2223 10.118 18.0834 9.68742 18.0834 8.39575Z" fill="white"/>
</svg>
