<svg width="31" height="31" viewBox="0 0 31 31" fill="none" xmlns="http://www.w3.org/2000/svg">
<path d="M24.728 26.5086L26.7063 24.926L27.6954 25.9152C28.0911 25.3217 29.278 24.7282 30.0693 25.3217C30.8606 25.9152 31.0584 26.9043 30.6628 27.6956C30.3019 28.4174 29.1461 28.6847 28.4867 28.6847C28.6845 30.0695 27.6954 30.8608 26.7063 30.8608C25.7172 30.8608 25.3215 30.663 24.9259 29.6738C24.6093 28.8825 25.3215 27.8934 25.7172 27.4978L24.728 26.5086Z" fill="#1E1E1E"/>
<path d="M6.13252 26.5086L4.15427 24.926L3.16514 25.9152C2.76949 25.3217 1.58254 24.7282 0.791242 25.3217C-5.8651e-05 25.9152 -0.197884 26.9043 0.197767 27.6956C0.558655 28.4174 1.71443 28.6847 2.37384 28.6847C2.17602 30.0695 3.16514 30.8608 4.15427 30.8608C5.1434 30.8608 5.53905 30.663 5.9347 29.6738C6.25122 28.8825 5.53905 27.8934 5.1434 27.4978L6.13252 26.5086Z" fill="#1E1E1E"/>
<path d="M24.728 4.35221L26.7063 5.93481L27.6954 4.94569C28.0911 5.53916 29.278 6.13264 30.0693 5.53916C30.8606 4.94569 31.0584 3.95656 30.6628 3.16526C30.3019 2.44348 29.1461 2.17614 28.4867 2.17614C28.6845 0.79136 27.6954 5.91278e-05 26.7063 5.91278e-05C25.7172 5.91278e-05 25.3215 0.197884 24.9259 1.18701C24.6093 1.97831 25.3215 2.96744 25.7172 3.36309L24.728 4.35221Z" fill="#1E1E1E"/>
<path d="M6.13252 4.35221L4.15427 5.93481L3.16514 4.94569C2.76949 5.53916 1.58254 6.13264 0.791242 5.53916C-5.8651e-05 4.94569 -0.197884 3.95656 0.197767 3.16526C0.558655 2.44348 1.71443 2.17614 2.37384 2.17614C2.17602 0.79136 3.16514 5.91278e-05 4.15427 5.91278e-05C5.1434 5.91278e-05 5.53905 0.197884 5.9347 1.18701C6.25122 1.97831 5.53905 2.96744 5.1434 3.36309L6.13252 4.35221Z" fill="#1E1E1E"/>
<path d="M27.2998 14.2435C27.2998 5.53923 20.5737 2.37402 15.4303 2.37402C5.34117 2.37402 3.56074 11.474 3.56074 14.2435C3.56074 16.4592 4.35204 18.4638 4.74769 19.1892V20.7718C4.74769 23.7787 7.64913 24.7942 9.09985 24.9261H10.6824V26.3109C10.6824 27.7352 12.0013 28.3551 12.6607 28.4869H18.1998C19.7824 28.4869 20.1781 27.0362 20.1781 26.3109V24.9261H21.7607C24.9259 24.9261 25.9809 22.1565 26.1128 20.7718V19.1892C27.0624 18.0813 27.2998 15.4305 27.2998 14.2435Z" fill="#1E1E1E"/>
<circle cx="15.4303" cy="23.7392" r="1.18695" fill="white"/>
<circle cx="10.089" cy="18.3978" r="2.96738" fill="white"/>
<circle cx="20.7715" cy="18.3978" r="2.96738" fill="white"/>
</svg>
