<svg width="33" height="32" viewBox="0 0 33 32" fill="none" xmlns="http://www.w3.org/2000/svg">
<path d="M16.8278 0.00136116C24.5206 -0.173473 26.4437 16.5378 26.4437 24.9153H19.8874V23.604C19.8874 22.5551 19.0133 22.2928 18.5762 22.2928H14.861C13.6371 22.2928 13.3312 23.167 13.3312 23.604V24.9153H5.4636C5.4636 16.6106 9.39738 9.1802 10.053 7.86895C10.7086 6.55769 10.2716 6.55769 9.61592 5.90206C9.09142 5.37756 7.79473 5.53782 7.21195 5.68352C5.82784 6.63054 2.84109 8.34974 1.96691 7.6504C1.09274 6.95107 1.60267 5.90205 1.96691 5.46496C5.4636 0.919268 9.29914 -0.00227029 10.4901 0.00136116H16.8278Z" fill="#1E1E1E"/>
<path d="M27.3179 27.5381H16.8278C13.8411 27.5381 7.08079 27.6255 3.93377 27.9752C0.786755 28.3248 0 29.5778 0 30.1606C0.0728477 30.5977 0.480795 31.4718 1.5298 31.4718C2.84106 31.4718 2.18543 31.4718 3.93377 30.8162C5.33245 30.2917 6.70199 30.1606 7.21192 30.1606H15.5166C18.7219 30.2334 25.5695 30.3354 27.3179 30.1606C29.5033 29.942 33 28.8493 33 27.7566C33 26.6639 32.5629 26.2268 31.6887 26.2268C30.8146 26.2268 30.596 26.4453 29.7219 26.8824C29.0225 27.2321 27.8278 27.4652 27.3179 27.5381Z" fill="#1E1E1E"/>
</svg>
