<svg width="18" height="17" viewBox="0 0 18 17" fill="none" xmlns="http://www.w3.org/2000/svg">
<path d="M15.3 16.5H9H2.7C2.58954 16.5 2.5 16.4105 2.5 16.3V8H1.26614C1.17381 8 1.1308 7.88555 1.20029 7.82474L8.8683 1.11524C8.9437 1.04926 9.0563 1.04926 9.1317 1.11524L16.7997 7.82474C16.8692 7.88555 16.8262 8 16.7339 8H15.5V16.3C15.5 16.4105 15.4105 16.5 15.3 16.5Z" stroke="#1E1E1E"/>
<path d="M14.5 2.08284V5.80306L12.5 4.05086V2.08284C12.5 2.0298 12.5206 1.97867 12.5602 1.94329C12.7562 1.76775 13.1415 1.5 13.5 1.5C13.8585 1.5 14.2438 1.76775 14.4398 1.94329C14.4794 1.97867 14.5 2.0298 14.5 2.08284Z" stroke="#1E1E1E"/>
<path d="M11 17V10.2C11 10.0895 10.9105 10 10.8 10H7.2C7.08954 10 7 10.0895 7 10.2V17" stroke="#1E1E1E"/>
</svg>
