<svg width="16" height="16" viewBox="0 0 16 16" fill="none" xmlns="http://www.w3.org/2000/svg">
<path d="M14.3 15.5H8H1.7C1.58954 15.5 1.5 15.4105 1.5 15.3V7H0.266145C0.173808 7 0.130804 6.88555 0.200294 6.82474L7.8683 0.115238C7.9437 0.0492588 8.0563 0.0492588 8.1317 0.115238L15.7997 6.82474C15.8692 6.88555 15.8262 7 15.7339 7H14.5V15.3C14.5 15.4105 14.4105 15.5 14.3 15.5Z" fill="white"/>
<path d="M13.5 1.08284V4.80306L11.5 3.05086V1.08284C11.5 1.0298 11.5206 0.978675 11.5602 0.943293C11.7562 0.767746 12.1415 0.5 12.5 0.5C12.8585 0.5 13.2438 0.767746 13.4398 0.943293C13.4794 0.978674 13.5 1.0298 13.5 1.08284Z" fill="white"/>
<path d="M10 9.2V15H6V9.2C6 9.08954 6.08954 9 6.2 9H9.8C9.91046 9 10 9.08954 10 9.2Z" fill="#0E356C"/>
</svg>
