<svg width="18" height="18" viewBox="0 0 18 18" fill="none" xmlns="http://www.w3.org/2000/svg">
<path d="M8.95502 0C9.5998 0 9.76099 0.805971 9.76099 1.20896H8.14905C8.14905 0.805971 8.31024 0 8.95502 0Z" fill="#B51515"/>
<path d="M14.7303 16.9255L16.2079 4.29858H1.70044C2.10342 8.19411 2.93626 16.1732 3.04372 16.9255C3.15119 17.6777 3.98402 17.9553 4.38701 18.0001H13.387C14.3542 18.0001 14.6855 17.2837 14.7303 16.9255Z" fill="#B51515"/>
<path d="M14.3281 1.07471H8.95499H3.58185C2.93707 1.07471 2.77588 1.61202 2.77588 1.88068H15.1341C15.1341 1.2359 14.5968 1.07471 14.3281 1.07471Z" fill="#B51515"/>
<path d="M16.4771 1.88062H8.95473H1.43233C1.25323 1.92539 0.89502 2.14927 0.89502 2.68659C0.89502 3.2239 1.25323 3.44778 1.43233 3.49256H16.4771C16.6562 3.44778 17.0144 3.2239 17.0144 2.68659C17.0144 2.14927 16.6562 1.92539 16.4771 1.88062Z" fill="#B51515"/>
</svg>
